<?xml version="1.0" encoding="utf-8"?>
<svg viewBox="0 0 500 500" xmlns="http://www.w3.org/2000/svg">
  <path d="M 276.729 402.076 Q 221.729 402.076 181.479 380.576 Q 141.229 359.076 119.729 321.826 Q 98.229 284.576 98.229 238.076 Q 98.229 192.076 122.479 155.576 Q 146.729 119.076 188.479 98.576 Q 230.229 78.076 281.729 78.076 Q 305.229 78.076 328.229 82.326 Q 351.229 86.576 365.229 93.576 Q 369.229 96.076 370.229 98.076 Q 371.229 100.076 371.729 105.076 L 376.229 167.076 Q 376.229 169.076 373.729 169.576 Q 371.229 170.076 370.229 168.576 Q 355.229 131.076 327.229 110.576 Q 299.229 90.076 261.229 90.076 Q 208.229 90.076 178.729 125.076 Q 149.229 160.076 149.229 219.576 Q 149.229 270.576 167.729 309.826 Q 186.229 349.076 218.729 370.576 Q 251.229 392.076 292.229 392.076 Q 311.729 392.076 322.229 387.076 Q 332.729 382.076 337.229 369.576 Q 341.729 357.076 341.729 333.076 Q 341.729 308.076 337.479 297.326 Q 333.229 286.576 321.729 283.076 Q 310.229 279.576 283.729 279.576 Q 281.229 279.576 281.229 275.576 Q 281.229 271.576 283.229 271.576 Q 322.229 274.076 349.229 274.076 Q 374.229 274.076 401.229 272.576 Q 403.229 272.576 403.479 276.076 Q 403.729 279.576 401.729 279.576 Q 394.229 279.076 391.229 281.826 Q 388.229 284.576 387.229 292.076 Q 386.229 299.576 386.229 317.576 L 386.229 338.076 Q 386.229 360.576 387.729 369.576 Q 389.229 378.576 389.229 382.076 Q 389.229 385.076 388.479 386.076 Q 387.729 387.076 384.729 388.076 Q 322.729 402.076 276.729 402.076 Z" style="fill: rgb(148, 139, 125); paint-order: fill; stroke: rgb(255, 255, 255); stroke-miterlimit: 6; stroke-width: 0px; white-space: pre;"/>
</svg>