 <svg xmlns="http://www.w3.org/2000/svg">
 
  <!-- Navbar logo (Thanks designer for ) -->
  
	
	<!-- Navbar (hamburger-menu) -->
		<symbol id="hamburger-menu" viewBox="0 0 32 32">
	<path d="M4,10h24c1.104,0,2-0.896,2-2s-0.896-2-2-2H4C2.896,6,2,6.896,2,8S2.896,10,4,10z M28,14H4c-1.104,0-2,0.896-2,2  s0.896,2,2,2h24c1.104,0,2-0.896,2-2S29.104,14,28,14z M28,22H4c-1.104,0-2,0.896-2,2s0.896,2,2,2h24c1.104,0,2-0.896,2-2  S29.104,22,28,22z"/>
		</symbol>

	 <!-- Navbar (close mobile ul) -->
		<symbol id="close" viewBox="0 0 50 50">
			<path d="M 40.783203 7.2714844 A 2.0002 2.0002 0 0 0 39.386719 7.8867188 L 25.050781 22.222656 L 10.714844 7.8867188 A 2.0002 2.0002 0 0 0 9.2792969 7.2792969 A 2.0002 2.0002 0 0 0 7.8867188 10.714844 L 22.222656 25.050781 L 7.8867188 39.386719 A 2.0002 2.0002 0 1 0 10.714844 42.214844 L 25.050781 27.878906 L 39.386719 42.214844 A 2.0002 2.0002 0 1 0 42.214844 39.386719 L 27.878906 25.050781 L 42.214844 10.714844 A 2.0002 2.0002 0 0 0 40.783203 7.2714844 z"/>
		</symbol>

		<!-- Footer component (instagram) -->
		<symbol id="instagram" viewBox="0 0 21 21">
      <path d="M20.9466 6.17408C20.8974 5.05826 20.7169 4.29115 20.4584 3.62644C20.1917 2.92086 19.7814 2.28916 19.2438 1.76402C18.7186 1.23071 18.0826 0.816309 17.3851 0.553821C16.7164 0.295339 15.9531 0.114899 14.8371 0.0657021C13.7127 0.0123392 13.3558 0 10.5041 0C7.65239 0 7.29545 0.0123392 6.17525 0.0615356C5.05923 0.110732 4.29197 0.291333 3.62729 0.549654C2.92142 0.816309 2.28959 1.22655 1.76436 1.76402C1.23095 2.28916 0.816625 2.92503 0.553926 3.62243C0.295395 4.29115 0.114921 5.0541 0.0657146 6.16991C0.0123415 7.29406 0 7.65093 0 10.5021C0 13.3532 0.0123415 13.7101 0.0615474 14.8301C0.110753 15.9459 0.291388 16.713 0.549919 17.3777C0.816625 18.0833 1.23095 18.715 1.76436 19.2401C2.28959 19.7735 2.92558 20.1879 3.62312 20.4503C4.29197 20.7088 5.05506 20.8893 6.17125 20.9385C7.29128 20.9878 7.64838 21 10.5001 21C13.3518 21 13.7087 20.9878 14.8289 20.9385C15.9449 20.8893 16.7122 20.7088 17.3769 20.4503C18.7885 19.9047 19.9045 18.7889 20.4502 17.3777C20.7086 16.709 20.8892 15.9459 20.9385 14.8301C20.9877 13.7101 21 13.3532 21 10.5021C21 7.65093 20.9958 7.29406 20.9466 6.17408ZM19.0552 14.748C19.01 15.7736 18.8377 16.3275 18.6941 16.6967C18.3411 17.6115 17.6149 18.3376 16.6999 18.6905C16.3306 18.8341 15.7726 19.0063 14.7509 19.0514C13.643 19.1007 13.3107 19.1129 10.5083 19.1129C7.70576 19.1129 7.36934 19.1007 6.26549 19.0514C5.2397 19.0063 4.68578 18.8341 4.31649 18.6905C3.86114 18.5222 3.44665 18.2556 3.11023 17.9069C2.76146 17.5663 2.49475 17.1561 2.32646 16.7008C2.18285 16.3316 2.01055 15.7736 1.96551 14.7522C1.91614 13.6446 1.90396 13.3122 1.90396 10.5103C1.90396 7.7083 1.91614 7.37194 1.96551 6.26846C2.01055 5.24287 2.18285 4.68905 2.32646 4.31983C2.49475 3.86441 2.76146 3.45016 3.11439 3.11364C3.45483 2.76494 3.86514 2.49828 4.32066 2.33018C4.68994 2.1866 5.24804 2.01433 6.26966 1.96914C7.37751 1.91994 7.70993 1.9076 10.5123 1.9076C13.3189 1.9076 13.6512 1.91994 14.755 1.96914C15.7808 2.01433 16.3347 2.1866 16.704 2.33018C17.1594 2.49828 17.5739 2.76494 17.9103 3.11364C18.2591 3.45417 18.5258 3.86441 18.6941 4.31983C18.8377 4.68905 19.01 5.24687 19.0552 6.26846C19.1044 7.3761 19.1167 7.7083 19.1167 10.5103C19.1167 13.3122 19.1044 13.6404 19.0552 14.748Z" fill="white"/>
      <path d="M10.5 6C8.01567 6 6 8.01554 6 10.5C6 12.9845 8.01567 15 10.5 15C12.9845 15 15 12.9845 15 10.5C15 8.01554 12.9845 6 10.5 6ZM10.5 13.419C8.88829 13.419 7.58096 12.1118 7.58096 10.5C7.58096 8.88816 8.88829 7.58096 10.5 7.58096C12.1118 7.58096 13.419 8.88816 13.419 10.5C13.419 12.1118 12.1118 13.419 10.5 13.419Z" fill="white"/>
      <path d="M18 5.5C18 6.32835 17.3284 7 16.4999 7C15.6716 7 15 6.32835 15 5.5C15 4.67146 15.6716 4 16.4999 4C17.3284 4 18 4.67146 18 5.5Z" fill="white"/>
    </symbol>

		<!-- Footer component (facebook) -->
		<symbol id="facebook" viewBox="0 0 24 24">
			<path class="cls-1" d="M18.13,7.75H13.87V5.84a1,1,0,0,1,1-1.1h3v-4H13.54c-3.93,0-4.67,3-4.67,4.86V7.75h-3v4h3v11.5h5V11.75h3.85Z"/>
		</symbol>

		<!-- Footer component (twitter) -->
		<symbol id="twitter" viewBox="0 0 50 50">
			<path d="M 34.21875 5.46875 C 28.238281 5.46875 23.375 10.332031 23.375 16.3125 C 23.375 16.671875 23.464844 17.023438 23.5 17.375 C 16.105469 16.667969 9.566406 13.105469 5.125 7.65625 C 4.917969 7.394531 4.597656 7.253906 4.261719 7.277344 C 3.929688 7.300781 3.632813 7.492188 3.46875 7.78125 C 2.535156 9.386719 2 11.234375 2 13.21875 C 2 15.621094 2.859375 17.820313 4.1875 19.625 C 3.929688 19.511719 3.648438 19.449219 3.40625 19.3125 C 3.097656 19.148438 2.726563 19.15625 2.425781 19.335938 C 2.125 19.515625 1.941406 19.839844 1.9375 20.1875 L 1.9375 20.3125 C 1.9375 23.996094 3.84375 27.195313 6.65625 29.15625 C 6.625 29.152344 6.59375 29.164063 6.5625 29.15625 C 6.21875 29.097656 5.871094 29.21875 5.640625 29.480469 C 5.410156 29.742188 5.335938 30.105469 5.4375 30.4375 C 6.554688 33.910156 9.40625 36.5625 12.9375 37.53125 C 10.125 39.203125 6.863281 40.1875 3.34375 40.1875 C 2.582031 40.1875 1.851563 40.148438 1.125 40.0625 C 0.65625 40 0.207031 40.273438 0.0507813 40.71875 C -0.109375 41.164063 0.0664063 41.660156 0.46875 41.90625 C 4.980469 44.800781 10.335938 46.5 16.09375 46.5 C 25.425781 46.5 32.746094 42.601563 37.65625 37.03125 C 42.566406 31.460938 45.125 24.226563 45.125 17.46875 C 45.125 17.183594 45.101563 16.90625 45.09375 16.625 C 46.925781 15.222656 48.5625 13.578125 49.84375 11.65625 C 50.097656 11.285156 50.070313 10.789063 49.777344 10.445313 C 49.488281 10.101563 49 9.996094 48.59375 10.1875 C 48.078125 10.417969 47.476563 10.441406 46.9375 10.625 C 47.648438 9.675781 48.257813 8.652344 48.625 7.5 C 48.75 7.105469 48.613281 6.671875 48.289063 6.414063 C 47.964844 6.160156 47.511719 6.128906 47.15625 6.34375 C 45.449219 7.355469 43.558594 8.066406 41.5625 8.5 C 39.625 6.6875 37.074219 5.46875 34.21875 5.46875 Z M 34.21875 7.46875 C 36.769531 7.46875 39.074219 8.558594 40.6875 10.28125 C 40.929688 10.53125 41.285156 10.636719 41.625 10.5625 C 42.929688 10.304688 44.167969 9.925781 45.375 9.4375 C 44.679688 10.375 43.820313 11.175781 42.8125 11.78125 C 42.355469 12.003906 42.140625 12.53125 42.308594 13.011719 C 42.472656 13.488281 42.972656 13.765625 43.46875 13.65625 C 44.46875 13.535156 45.359375 13.128906 46.3125 12.875 C 45.457031 13.800781 44.519531 14.636719 43.5 15.375 C 43.222656 15.578125 43.070313 15.90625 43.09375 16.25 C 43.109375 16.65625 43.125 17.058594 43.125 17.46875 C 43.125 23.71875 40.726563 30.503906 36.15625 35.6875 C 31.585938 40.871094 24.875 44.5 16.09375 44.5 C 12.105469 44.5 8.339844 43.617188 4.9375 42.0625 C 9.15625 41.738281 13.046875 40.246094 16.1875 37.78125 C 16.515625 37.519531 16.644531 37.082031 16.511719 36.683594 C 16.378906 36.285156 16.011719 36.011719 15.59375 36 C 12.296875 35.941406 9.535156 34.023438 8.0625 31.3125 C 8.117188 31.3125 8.164063 31.3125 8.21875 31.3125 C 9.207031 31.3125 10.183594 31.1875 11.09375 30.9375 C 11.53125 30.808594 11.832031 30.402344 11.816406 29.945313 C 11.800781 29.488281 11.476563 29.097656 11.03125 29 C 7.472656 28.28125 4.804688 25.382813 4.1875 21.78125 C 5.195313 22.128906 6.226563 22.402344 7.34375 22.4375 C 7.800781 22.464844 8.214844 22.179688 8.355469 21.746094 C 8.496094 21.3125 8.324219 20.835938 7.9375 20.59375 C 5.5625 19.003906 4 16.296875 4 13.21875 C 4 12.078125 4.296875 11.03125 4.6875 10.03125 C 9.6875 15.519531 16.6875 19.164063 24.59375 19.5625 C 24.90625 19.578125 25.210938 19.449219 25.414063 19.210938 C 25.617188 18.96875 25.695313 18.648438 25.625 18.34375 C 25.472656 17.695313 25.375 17.007813 25.375 16.3125 C 25.375 11.414063 29.320313 7.46875 34.21875 7.46875 Z"/>
		</symbol>

		<!-- Main section (line) -->
 		<symbol id="line" viewBox="200 0 1 1">
  <line x1="0" y1="0" x2="1000" y2="0"/>
  </symbol>
	




		<!-- Page (spoon) -->
		<symbol id="spoon" viewBox="0 0 40 10">
			<path d="M33.5014 9.5C37.0847 9.5 39.9998 7.48129 39.9998 4.99995C39.9998 2.51861 37.0847 0.5 33.5014 0.5C30.112 0.5 27.3219 2.30637 27.0298 4.6018H22.3527V3.6552L-0.000213623 3.6552V6.34446L22.3528 6.34446V5.39798H27.0299C27.3221 7.69352 30.112 9.5 33.5014 9.5ZM21.4896 5.54839L0.863079 5.54839V4.45161H21.4896V5.54839ZM27.866 4.99995C27.866 2.95778 30.3942 1.2964 33.5015 1.2964C36.6088 1.2964 39.137 2.95778 39.137 4.99995C39.137 7.04222 36.6088 8.7037 33.5015 8.7037C30.3942 8.7037 27.866 7.04222 27.866 4.99995Z" fill="#DCCA87"/>
		</symbol>

				<!-- Modal (close) -->
		<symbol id="close" viewBox="0 0 24 24">
				<path d="M18 18L12 12M12 12L6 6M12 12L18 6M12 12L6 18" stroke="#ffffff" stroke-width="2" stroke-linecap="round" stroke-linejoin="round"/>
		</symbol>



 </svg>