<?xml version="1.0" standalone="no"?>
<!DOCTYPE svg PUBLIC "-//W3C//DTD SVG 20010904//EN"
 "http://www.w3.org/TR/2001/REC-SVG-20010904/DTD/svg10.dtd">
<svg version="1.0" xmlns="http://www.w3.org/2000/svg"
 width="362.000000pt" height="512.000000pt" viewBox="0 0 362.000000 512.000000"
 preserveAspectRatio="xMidYMid meet">
<metadata>
Created by potrace 1.16, written by Peter Selinger 2001-2019
</metadata>
<g transform="translate(0.000000,512.000000) scale(0.100000,-0.100000)"
fill="#ffffff" stroke="none">
<path d="M1700 4954 c-107 -29 -204 -109 -256 -212 -27 -53 -29 -64 -29 -177
0 -116 1 -123 32 -186 39 -80 111 -150 191 -187 52 -25 68 -27 177 -27 113 0
123 2 174 29 77 40 155 118 191 189 28 57 30 67 30 176 0 101 -3 123 -24 166
-88 188 -288 282 -486 229z"/>
<path d="M1375 4081 c-131 -8 -188 -25 -276 -81 -68 -44 -140 -127 -179 -208
-30 -61 -34 -80 -42 -202 -5 -74 -8 -403 -6 -730 3 -575 4 -596 23 -629 59
-101 237 -106 306 -10 l24 34 3 593 3 592 34 0 34 0 3 -1572 3 -1573 22 -36
c41 -65 122 -109 201 -109 99 0 169 36 220 113 l27 41 4 928 3 928 34 0 33 0
-1 -887 c-1 -489 2 -915 7 -948 7 -54 12 -65 55 -106 36 -35 60 -49 100 -59
97 -23 202 3 263 67 22 23 29 44 37 104 6 44 10 676 10 1592 l0 1517 34 0 34
0 3 -594 c4 -581 5 -595 25 -622 35 -48 70 -67 129 -72 78 -6 138 18 173 71
l27 41 3 667 c3 729 1 753 -55 869 -55 114 -210 240 -334 270 -53 13 -811 21
-984 11z"/>
</g>
</svg>
