<?xml version="1.0" standalone="no"?>
<!DOCTYPE svg PUBLIC "-//W3C//DTD SVG 20010904//EN"
 "http://www.w3.org/TR/2001/REC-SVG-20010904/DTD/svg10.dtd">
<svg version="1.0" xmlns="http://www.w3.org/2000/svg"
 width="319.000000pt" height="697.000000pt" viewBox="0 0 319.000000 697.000000"
 preserveAspectRatio="xMidYMid meet">
<metadata>
Created by potrace 1.16, written by Peter Selinger 2001-2019
</metadata>
<g transform="translate(0.000000,697.000000) scale(0.100000,-0.100000)"
fill="#ffffff" stroke="none">
<path d="M1415 6952 c-136 -51 -222 -120 -306 -246 -59 -91 -96 -236 -85 -341
9 -82 37 -181 66 -234 14 -24 31 -54 38 -67 7 -12 43 -51 80 -85 115 -106 282
-167 428 -155 86 7 224 55 276 97 20 16 40 29 44 29 10 0 104 100 104 110 0 5
6 15 14 22 20 20 50 84 72 153 28 89 26 256 -4 350 -12 39 -36 89 -52 112 -17
23 -30 46 -30 51 0 25 -139 136 -220 176 l-85 41 -145 2 c-120 3 -153 0 -195
-15z"/>
<path d="M1115 5690 c-49 -4 -108 -14 -130 -23 -76 -28 -172 -77 -190 -97 -10
-11 -23 -20 -29 -20 -19 0 -155 -153 -195 -220 -39 -66 -79 -173 -146 -400
-40 -134 -79 -262 -130 -430 -18 -58 -47 -154 -65 -215 -18 -60 -48 -162 -68
-225 -19 -63 -50 -167 -69 -230 -20 -63 -48 -155 -64 -205 -24 -74 -29 -108
-29 -186 0 -93 1 -99 32 -145 88 -130 257 -151 365 -46 58 57 59 58 172 442
17 58 46 157 65 220 73 248 109 369 137 465 39 133 96 323 124 415 l23 75 46
3 c25 2 46 0 46 -4 0 -16 -48 -185 -115 -409 -19 -66 -35 -124 -35 -129 0 -5
-15 -59 -34 -120 -18 -61 -48 -163 -65 -226 -18 -63 -48 -168 -67 -232 -19
-65 -50 -173 -69 -240 -20 -68 -45 -154 -57 -193 -12 -38 -29 -101 -38 -140
-10 -38 -29 -108 -43 -155 -25 -82 -66 -222 -126 -435 -16 -55 -45 -154 -65
-220 -20 -66 -36 -128 -36 -137 0 -17 24 -18 355 -18 l355 0 0 -980 c0 -685 3
-995 11 -1032 14 -67 31 -99 71 -138 60 -57 79 -62 208 -58 l117 3 46 38 c28
23 56 59 74 95 l28 57 3 1013 3 1012 64 0 65 0 0 -1007 c1 -820 3 -1015 14
-1046 21 -57 55 -101 105 -136 45 -30 50 -31 154 -31 121 0 163 14 211 71 66
78 61 -10 64 1117 l3 1022 359 0 c198 0 360 3 360 6 0 4 -15 57 -34 118 -19
61 -48 158 -65 216 -16 58 -42 146 -56 195 -15 50 -35 122 -45 160 -10 39 -30
106 -44 150 -14 44 -26 84 -26 90 0 5 -13 53 -29 105 -46 149 -80 269 -102
350 -11 41 -30 111 -44 155 -13 44 -38 130 -56 190 -17 61 -46 160 -65 221
-19 61 -34 115 -34 120 0 5 -16 63 -35 129 -37 124 -80 269 -114 388 l-19 67
53 0 53 0 26 -87 c40 -130 111 -369 192 -643 20 -69 51 -174 69 -235 18 -60
48 -159 66 -220 76 -260 114 -369 141 -406 87 -120 253 -132 359 -27 53 53 69
98 69 190 0 64 -7 104 -29 173 -15 49 -45 146 -66 215 -21 69 -50 166 -65 215
-15 50 -45 146 -65 215 -21 69 -52 172 -70 230 -18 58 -49 161 -70 230 -20 69
-50 166 -65 215 -15 50 -40 132 -56 183 -15 51 -32 96 -36 98 -4 3 -8 13 -8
22 0 31 -95 166 -167 237 -88 87 -115 107 -200 149 -141 70 -130 68 -633 71
-250 2 -495 0 -545 -5z"/>
</g>
</svg>
