<svg xmlns="http://www.w3.org/2000/svg">



<!-- Navbar (hamburger-menu) -->
		<symbol id="hamburger-menu" viewBox="0 0 32 32">
<path d="M4,10h24c1.104,0,2-0.896,2-2s-0.896-2-2-2H4C2.896,6,2,6.896,2,8S2.896,10,4,10z M28,14H4c-1.104,0-2,0.896-2,2  s0.896,2,2,2h24c1.104,0,2-0.896,2-2S29.104,14,28,14z M28,22H4c-1.104,0-2,0.896-2,2s0.896,2,2,2h24c1.104,0,2-0.896,2-2  S29.104,22,28,22z"/>
</symbol>

<!-- Navbar (close mobile ul) -->
		<symbol id="close" viewBox="0 0 50 50">
			<path d="M 40.783203 7.2714844 A 2.0002 2.0002 0 0 0 39.386719 7.8867188 L 25.050781 22.222656 L 10.714844 7.8867188 A 2.0002 2.0002 0 0 0 9.2792969 7.2792969 A 2.0002 2.0002 0 0 0 7.8867188 10.714844 L 22.222656 25.050781 L 7.8867188 39.386719 A 2.0002 2.0002 0 1 0 10.714844 42.214844 L 25.050781 27.878906 L 39.386719 42.214844 A 2.0002 2.0002 0 1 0 42.214844 39.386719 L 27.878906 25.050781 L 42.214844 10.714844 A 2.0002 2.0002 0 0 0 40.783203 7.2714844 z"/>
		</symbol>




</svg>