<?xml version="1.0" standalone="no"?>
<!DOCTYPE svg PUBLIC "-//W3C//DTD SVG 20010904//EN"
 "http://www.w3.org/TR/2001/REC-SVG-20010904/DTD/svg10.dtd">
<svg version="1.0" xmlns="http://www.w3.org/2000/svg"
 width="1280.000000pt" height="1280.000000pt" viewBox="0 0 1280.000000 1280.000000"
 preserveAspectRatio="xMidYMid meet">
<metadata>
Created by potrace 1.15, written by Peter Selinger 2001-2017
</metadata>
<g transform="translate(0.000000,1280.000000) scale(0.100000,-0.100000)"
fill="#aeaeae" stroke="none">
<path d="M7635 11089 c-440 -4 -1673 -14 -2740 -23 -2407 -20 -2383 -19 -2430
-42 -43 -20 -79 -65 -93 -116 -7 -25 -6 -194 3 -525 8 -268 16 -600 20 -738
19 -768 25 -917 41 -950 8 -18 104 -120 213 -228 162 -160 205 -197 240 -208
44 -13 409 -4 2236 55 88 3 241 8 340 11 99 3 303 10 454 15 151 5 276 8 278
7 1 -2 -32 -52 -74 -113 -532 -763 -957 -1512 -1257 -2217 -326 -766 -584
-1704 -755 -2749 -67 -406 -103 -678 -105 -778 l-1 -95 239 -455 c131 -250
250 -468 265 -483 39 -43 74 -57 138 -57 32 0 465 36 963 80 498 44 1042 91
1210 106 342 29 372 37 417 105 28 42 25 24 69 449 73 710 196 1400 355 1978
345 1263 912 2491 1587 3440 314 441 626 811 1043 1235 107 109 200 210 208
225 12 22 19 183 38 832 13 443 22 857 21 921 -3 106 -5 119 -30 156 -49 75
-57 76 -593 127 l-480 46 -510 -2 c-280 0 -870 -5 -1310 -9z"/>
</g>
</svg>
